<svg width="513" height="516" viewBox="0 0 513 516" fill="none" xmlns="http://www.w3.org/2000/svg">
<rect x="0.5" y="1.57056" width="512" height="513.929" rx="19.5" fill="#1D1E21" stroke="black"/>
<path d="M134.547 247.83C134.547 294.886 167.602 340.34 206.013 380.041C225.38 400.059 246.108 418.614 264.648 435.174C308.184 469.037 342.914 492.432 354.979 505.939C359.728 511.256 354.696 516 347.567 516C330.027 516 299.49 516 264.648 516C196.933 516 86.4926 516 19.9823 516C8.93663 516 0.000104294 507.05 0.000130986 496.005C0.000168115 480.641 0.00029032 461.041 0.000168989 426.074C2.47273e-05 374.689 0.000240645 301.316 0.000240645 260.141C0.000240645 198.667 -3.76632e-05 81.2582 4.31193e-06 19.9481C1.18742e-05 8.90244 8.94427 -0.00101948 19.9899 0.0162829C105.76 0.150636 204.887 1.07106 277.83 1.07106C295.478 1.07086 302.425 23.7842 288.215 34.2488C227.469 78.9814 134.547 160.47 134.547 247.83Z" fill="#131417"/>
</svg>
